<svg width="16" height="16" viewBox="0 0 16 16" fill="none" xmlns="http://www.w3.org/2000/svg">
<path fill-rule="evenodd" clip-rule="evenodd" d="M12.566 3.91553C12.8179 4.16748 12.8179 4.57597 12.566 4.82792L4.82402 12.5699C4.57206 12.8218 4.16357 12.8218 3.91162 12.5699C3.65967 12.3179 3.65967 11.9094 3.91162 11.6575L11.6536 3.91553C11.9055 3.66357 12.314 3.66357 12.566 3.91553Z" fill="#1D1D1F"/>
<path fill-rule="evenodd" clip-rule="evenodd" d="M3.91162 3.91553C4.16357 3.66357 4.57206 3.66357 4.82402 3.91553L12.566 11.6575C12.8179 11.9094 12.8179 12.3179 12.566 12.5699C12.314 12.8218 11.9055 12.8218 11.6536 12.5699L3.91162 4.82792C3.65967 4.57597 3.65967 4.16748 3.91162 3.91553Z" fill="#1D1D1F"/>
</svg>
