<svg width="45" height="44" viewBox="0 0 45 44" fill="none" xmlns="http://www.w3.org/2000/svg">
<path d="M19.3997 7.95703V9.69143C19.3997 10.2251 17.9543 11.2035 15.5529 11.2035C13.1514 11.2035 11.7061 10.2251 11.7061 9.69143V7.95703C12.7289 8.46846 14.0408 8.77976 15.5529 8.77976C17.0649 8.802 18.3991 8.49069 19.3997 7.95703Z" fill="#9E9E9E"/>
<path d="M24.1321 12.1797H22.1309V19.5842H24.1321V12.1797Z" fill="#86868B"/>
<path d="M15.5723 37.0394C10.7694 37.0394 6.98926 34.8603 6.98926 32.1031V12.1797H8.99049V32.1031C8.99049 33.4817 11.7922 35.0382 15.5723 35.0382V37.0394Z" fill="#86868B"/>
<path d="M15.5723 17.1143C10.7471 17.1143 6.98926 14.9574 6.98926 12.1779C6.98926 10.5992 8.21223 9.15386 10.3246 8.24219L11.1251 10.0878C9.79098 10.6659 8.99049 11.4442 8.99049 12.2002C8.99049 13.5788 11.7922 15.1353 15.5723 15.1353C19.3524 15.1353 22.1541 13.5788 22.1541 12.2002C22.1541 11.4664 21.3537 10.6659 20.0195 10.0878L20.82 8.24219C22.9324 9.15386 24.1554 10.5992 24.1554 12.1779C24.1331 14.9574 20.3753 17.1143 15.5723 17.1143Z" fill="#86868B"/>
<path d="M21.4004 5.28516V9.7101C21.4004 9.88799 21.3782 10.0659 21.3337 10.2438C20.9335 11.9782 18.5765 13.2011 15.5746 13.2011C12.7951 13.2011 10.5938 12.1561 9.92669 10.644C9.79327 10.3327 9.72656 10.0214 9.72656 9.68787V5.28516H11.7278V9.7101C11.7278 10.2438 13.1954 11.2221 15.5746 11.2221C17.9538 11.2221 19.4214 10.2438 19.4214 9.7101V5.28516H21.4004Z" fill="#86868B"/>
<path d="M20.8858 3.79691C19.9964 2.57393 17.9952 1.77344 15.5492 1.77344C13.4368 1.77344 11.6579 2.37381 10.6351 3.32995C10.0347 3.88585 9.70117 4.55293 9.70117 5.28671C9.70117 6.39851 10.4572 7.33241 11.7024 7.97726C12.7253 8.48868 14.0372 8.79998 15.5492 8.79998C17.039 8.79998 18.3732 8.48868 19.396 7.97726C20.6412 7.35465 21.3973 6.39851 21.3973 5.28671C21.3973 4.73081 21.2194 4.24162 20.8858 3.79691ZM15.5715 6.79875C13.1922 6.79875 11.7246 5.82037 11.7246 5.28671C11.7246 4.75305 13.1922 3.77467 15.5715 3.77467C17.9507 3.77467 19.4183 4.75305 19.4183 5.28671C19.396 5.82037 17.9507 6.79875 15.5715 6.79875Z" fill="#86868B"/>
<path d="M19.3997 5.28548C19.3997 5.81914 17.9543 6.79752 15.5529 6.79752C13.1514 6.79752 11.7061 5.81914 11.7061 5.28548C11.7061 4.75182 13.1736 3.77344 15.5529 3.77344C17.9321 3.77344 19.3997 4.75182 19.3997 5.28548Z" fill="#9E9E9E"/>
<path d="M25.203 18.5859C17.4649 18.5859 11.3945 21.9436 11.3945 26.2351C11.3945 30.5266 17.4649 33.8842 25.203 33.8842C32.9411 33.8842 39.0115 30.5266 39.0115 26.2351C39.0115 21.9436 32.9634 18.5859 25.203 18.5859ZM35.7873 28.7033C33.8306 30.5711 29.7836 31.883 25.203 31.883C20.6224 31.883 16.5755 30.5711 14.6187 28.681C13.8405 27.9473 13.3958 27.1023 13.3958 26.2351C13.3958 23.1888 18.7991 20.5872 25.203 20.5872C31.5847 20.5872 37.0103 23.1665 37.0103 26.2351C37.0103 27.1023 36.5656 27.9473 35.7873 28.7033Z" fill="#86868B"/>
<path d="M25.1974 42.0002C19.6162 42.0002 15.8138 39.9323 14.7243 36.3523L12.5674 29.2813L14.4797 28.7031L16.6366 35.7741C17.437 38.4647 20.5501 39.999 25.1751 39.999V42.0002H25.1974Z" fill="#86868B"/>
<path d="M25.2041 41.999V39.9978C29.8292 39.9978 32.9422 38.4635 33.7427 35.7729L35.8996 28.6797L37.8119 29.2578L35.655 36.3288C34.5877 39.9311 30.7853 41.999 25.2041 41.999Z" fill="#86868B"/>
<path d="M35.7867 28.7038C33.83 30.5716 29.7831 31.8835 25.2025 31.8835C20.6219 31.8835 16.5749 30.5716 14.6182 28.6815C16.0413 26.7915 19.9993 25.1016 25.2025 25.1016C30.4279 25.1238 34.3859 26.7915 35.7867 28.7038Z" fill="#9E9E9E"/>
</svg>
