<svg width="220" height="49" viewBox="0 0 220 49" fill="none" xmlns="http://www.w3.org/2000/svg">
<path d="M26.5 0.785156C34.7193 0.785268 41.4657 3.68043 41.4658 7.68164V15.4307C46.21 13.8004 44.9334 19.3359 47.3701 19.3359C49.1092 19.3359 50.2074 18.278 50.665 16.1631L53 19.3359C51.9016 21.2669 50.3909 22.2323 48.4688 22.2324C45.5499 22.2324 44.6247 16.459 41.4658 17.9805V19.5566C45.9829 19.7534 47.2689 22.2673 46.6836 26.0469L44.0742 25.6328C44.5477 23.5717 44.0011 21.5787 41.4658 21.2451V41.8887C41.4657 45.8899 34.7193 48.785 26.5 48.7852C18.2805 48.7852 11.5333 45.89 11.5332 41.8887V7.68164C11.5333 3.68035 18.2805 0.785156 26.5 0.785156ZM26.5127 19.7959C21.9934 19.8032 10.5185 13.3195 13.7451 22.6641C16.3808 30.2968 21.5044 25.8653 26.4443 25.8652C31.3324 25.8652 36.5036 30.2536 39.1445 22.6641C42.3095 13.5669 30.9218 19.7885 26.5127 19.7959ZM27.5713 22.5068C30.3175 23.334 37.3195 14.0934 38.1543 21.8174C37.5928 20.8502 36.8492 20.511 36.0107 20.5303C36.2053 21.9297 35.6641 23.2467 34.4111 24.4268C34.056 24.7612 33.6966 25.0058 33.3359 25.1631C33.9123 25.3619 34.5577 25.4879 35.2715 25.541C32.4587 26.0708 30.4473 25.2862 29.2383 23.1875C28.5621 23.2811 27.9861 23.1179 27.5713 22.5068ZM14.8281 21.7949C15.652 13.9329 24.7146 25.5183 25.6758 21.6562C25.6758 23.2206 24.8799 23.4965 23.7158 23.2148C22.5037 25.2763 20.5024 26.0442 17.7119 25.5186C18.4257 25.4654 19.0711 25.3395 19.6475 25.1406C19.2868 24.9834 18.9274 24.7387 18.5723 24.4043C17.3398 23.2436 16.7952 21.95 16.9629 20.5762C15.9683 20.4473 15.1825 20.7268 14.8281 21.7949ZM34.9277 20.7188C34.335 20.8959 33.7163 21.1795 33.0977 21.4932C33.4877 21.6625 33.7607 22.0529 33.7607 22.5068C33.7607 23.1163 33.2688 23.6104 32.6621 23.6104C32.0556 23.6102 31.5635 23.1162 31.5635 22.5068C31.5635 22.4307 31.5713 22.356 31.5859 22.2842C31.2248 22.4706 30.8709 22.6456 30.5293 22.792C30.7299 23.1725 30.9678 23.514 31.2422 23.8164C32.0696 24.4826 32.8414 24.3931 33.6602 23.6221C34.6423 22.6971 35.0571 21.746 34.9277 20.7188ZM18.042 20.834C17.9651 21.8086 18.3853 22.7152 19.3232 23.5986C20.1421 24.3698 20.9138 24.4602 21.7412 23.7939C22.0139 23.4935 22.2504 23.154 22.4502 22.7764C22.1136 22.6353 21.7632 22.4749 21.4053 22.3066C21.4145 22.3643 21.4189 22.4241 21.4189 22.4844C21.4189 23.0937 20.9269 23.5879 20.3203 23.5879C19.7139 23.5876 19.2228 23.0936 19.2227 22.4844C19.2227 22.0786 19.4408 21.7239 19.7656 21.5322C19.1763 21.2621 18.5926 21.0136 18.042 20.834ZM27.0215 20.4375C27.0215 21.2065 27.4337 21.8171 28.1201 21.9551C27.4336 22.0929 26.6096 21.5408 27.0215 20.4375ZM26.5 2.44043C19.2509 2.44043 13.4552 4.9794 13.4551 7.68164C13.4551 10.3839 19.2508 12.9229 26.5 12.9229C33.7489 12.9227 39.5439 10.3838 39.5439 7.68164C39.5438 4.97946 33.7489 2.44054 26.5 2.44043Z" fill="#1D1D1F"/>
<ellipse cx="26.5002" cy="7.6805" rx="6.45337" ry="2.75862" fill="#FF6633"/>
<path d="M103.205 9.96484L103.186 10.0635C102.98 10.0207 102.863 10.0724 102.834 10.2178L103.067 10.1523L103.164 10.1719L103.143 10.2812L102.878 10.5557C102.858 10.6608 102.94 10.7867 103.125 10.9346L103.337 10.9785C103.374 10.7873 103.506 10.6669 103.729 10.6172L103.749 10.5186L104.164 10.6035C104.142 10.7153 104.523 11.1611 105.307 11.9385C105.925 12.7097 106.499 13.8232 107.029 15.2812C107.54 17.4474 107.747 18.7811 107.648 19.2812L107.542 19.2588C107.667 20.4626 107.75 21.8802 107.791 23.5117C107.694 23.6354 107.637 23.7361 107.621 23.8154C107.833 23.8589 107.889 24.4973 107.787 25.7295L107.64 25.915L107.51 28.7744C107.271 29.2731 107.142 29.5755 107.121 29.6807L107.101 30.3438L107.197 30.3633L107.431 30.2988L107.389 30.5156L107.241 30.7012C107.312 30.7156 107.34 30.7596 107.326 30.832C107.256 30.8178 107.213 30.846 107.199 30.918L107.405 30.9609C108.301 29.6599 108.95 28.612 109.35 27.8154C109.35 27.6609 109.564 27.4095 109.99 27.0605L111.574 23.4854C111.502 23.4455 111.466 23.1904 111.466 22.7207C111.965 21.64 112.283 21.0996 112.421 21.0996C112.939 19.9447 113.788 17.4836 114.97 13.7178L115.924 11.4424C115.852 11.3012 115.816 11.1938 115.816 11.1201C116.079 11.1201 116.466 10.7945 116.978 10.1436H117.41L117.509 10.5762H117.617C117.761 10.5762 117.834 10.5023 117.834 10.3545L118.887 10.4648H119.104C119.104 10.68 119.173 10.7881 119.311 10.7881H119.419C119.419 10.5729 119.491 10.4648 119.636 10.4648H119.743C119.881 10.4849 119.95 10.5589 119.95 10.6865L120.166 10.5762H120.265V11.0088H120.481C120.619 11.0087 120.688 10.9353 120.688 10.7881V10.6865L120.59 10.4648L121.121 10.3545H121.328L121.22 10.5762V10.8984C121.364 10.8985 121.436 11.0431 121.436 11.332H122.283C122.283 11.4054 122.246 11.4422 122.175 11.4424C122.208 11.8046 122.315 11.9863 122.499 11.9863V12.6299C122.538 13.4024 122.748 13.9461 123.129 14.2617C123.129 14.2961 123.238 14.659 123.454 15.3496L123.661 15.2383H123.769L124.191 16.8691C124.401 16.8691 124.507 17.0847 124.507 17.5146C124.435 17.5146 124.398 17.5513 124.398 17.625L124.615 17.7363V17.625C124.543 17.625 124.507 17.5885 124.507 17.5146H124.832C124.839 17.9242 125.049 18.7199 125.462 19.9014C125.389 20.2971 125.354 20.5855 125.354 20.7666L125.569 20.8779C125.569 20.8043 125.606 20.7667 125.678 20.7666C125.678 20.9146 125.888 21.3846 126.309 22.1768C128.493 21.962 129.802 21.8545 130.235 21.8545V22.0762H130.019L130.127 22.6104L128.011 23.2646L128.109 23.4854C128.109 23.828 127.794 24.0426 127.164 24.1299V24.2412H127.371V24.4629L127.164 24.7852V24.9961C127.728 26.8287 128.188 28.4566 128.542 29.8799C128.542 29.9942 128.612 30.1389 128.749 30.3135V30.4238C128.749 30.4975 128.713 30.5341 128.641 30.5342L129.596 33.3545C129.53 33.3545 129.497 33.3912 129.497 33.4648C129.799 33.465 130.114 34.5829 130.442 36.8184C130.206 36.8184 130.031 36.9993 129.92 37.3613H129.28C129.28 37.583 129.103 37.6943 128.749 37.6943C128.5 37.446 127.863 37.154 126.84 36.8184C126.84 36.7044 126.311 36.489 125.255 36.1738C125.254 36.0929 125.041 35.9111 124.615 35.6299V35.4082L125.354 35.5195H125.678C125.816 35.5195 125.885 35.449 125.885 35.3076C125.885 35.0789 125.215 33.3065 123.877 29.9912C123.877 29.5478 123.522 28.427 122.813 26.6279C121.456 27.0643 119.973 27.3898 118.365 27.6045C118.365 27.5305 118.33 27.4933 118.258 27.4932C118.258 27.7079 118.044 27.8526 117.617 27.9268C116.416 28.2087 115.816 28.6083 115.816 29.125C115.37 30.5753 114.946 31.5854 114.546 32.1562V32.4883C114.756 32.4883 114.861 32.5592 114.861 32.7002V32.8105L114.654 32.7002H114.438C114.229 33.2639 114.124 33.6261 114.124 33.7871L113.907 33.6768C113.907 33.8648 113.693 34.0828 113.267 34.3311C113.266 34.4658 112.879 35.1167 112.105 36.2842L111.889 36.3857H111.683L111.26 36.0635H111.151C111.014 36.0835 110.944 36.157 110.944 36.2842C111.01 36.4181 111.043 36.5257 111.043 36.6064L110.836 36.7178C110.744 36.644 110.567 36.6064 110.305 36.6064C110.305 36.8211 110.164 36.9286 109.882 36.9287L108.179 35.7412C107.742 35.7411 107.317 35.2162 106.902 34.167C106.868 34.64 106.758 35.3595 106.568 36.3252L106.401 37.1738C106.305 37.6679 106.188 37.9005 106.053 37.873L105.95 38.9609L105.826 39.5928C105.446 40.7747 104.98 41.491 104.43 41.7402C104.283 41.8566 104.02 41.9454 103.646 42.0078C103.63 42.0126 103.617 42.0182 103.601 42.0234C103.307 42.2708 103.516 42.2038 103.275 42.4492C103.194 42.4854 103.007 42.5042 102.721 42.5068V42.5098C102.547 42.5882 102.326 42.6079 102.058 42.5674C101.737 42.9534 101.488 43.1855 101.314 43.2637L100.266 43.252C99.3114 43.3663 98.1234 43.388 96.7021 43.3164C95.6088 42.7739 94.3136 42.3714 92.8164 42.1064C92.0716 41.5251 91.4081 41.2327 90.8262 41.2305C90.6861 40.9048 89.6903 40.2058 87.8389 39.1328C87.2213 38.7802 86.849 38.6314 86.7227 38.6885C86.2568 38.1874 85.9335 37.977 85.7529 38.0576L85.582 37.6611C87.3483 38.3692 88.2982 38.6942 88.4307 38.6348L88.3867 38.5332L87.5 38.0957L87.4609 38.0039L87.5596 37.96C87.5793 38.0036 88.1424 38.2277 89.248 38.6348C90.3546 39.042 91.2897 39.2468 92.0508 39.249C92.6674 39.3677 93.0632 39.3881 93.2373 39.3096L93.3359 39.2646C93.4442 39.2162 93.4798 39.1232 93.4424 38.9863C90.84 38.317 89.4569 37.7917 89.292 37.4111L89.1465 37.5977C88.9486 37.6871 88.7501 37.5008 88.5518 37.04L88.3623 37.125L88.4453 37.3184L88.3467 37.3633C88.2306 37.0931 88.0833 36.8435 87.9062 36.6152L88.1045 36.5264L88.1484 36.627C91.5322 37.8613 93.8592 38.5123 95.1279 38.5791C95.1706 38.5886 98.7049 39.3754 100.352 38.4131C103.338 36.6672 102.572 24.832 102.572 24.832L102.806 21.4492C102.839 19.0665 102.618 16.5144 102.142 13.7939C101.913 13.1856 100.994 10.7951 101.091 10.3008C101.244 9.96326 101.382 9.80609 101.504 9.83105L101.813 9.89453C101.841 9.75679 101.889 9.69481 101.96 9.70898L102.481 9.81641L102.503 9.70801L103.205 9.96484ZM74.8037 11.8887C75.4401 12.01 75.7587 12.1543 75.7588 12.3223V12.5439C74.9714 12.8665 74.335 13.4807 73.8496 14.3867L73.958 14.6084L73.6328 16.9951H73.8496L73.6328 17.3164C73.6328 17.4775 73.6691 17.6226 73.7412 17.75L73.5342 18.293L73.6328 18.8369L73.5342 19.0488L73.6328 19.7031V20.0254C73.4955 20.7301 73.4268 21.1296 73.4268 21.2236C73.4268 21.3845 73.4623 21.5289 73.5342 21.6562C73.3903 22.0183 73.2825 22.1995 73.21 22.2002L73.3184 22.4121C73.3184 22.7748 73.2491 22.9561 73.1113 22.9561L73.21 23.1777L73.0029 23.5C73.075 23.8957 73.1113 24.1841 73.1113 24.3652C73.0389 24.3653 73.0029 24.4028 73.0029 24.4766H73.21C73.21 23.7516 73.3871 23.0633 73.7412 22.4121L73.6328 21.7676V21.6562C73.9215 21.6562 74.0664 21.3682 74.0664 20.791H74.165L74.0664 20.5693C74.2301 20.3341 74.3348 20.009 74.3809 19.5928C74.3088 19.4723 74.2725 19.2906 74.2725 19.0488H74.3809L74.2725 18.8369L74.4893 18.5059V18.4043C74.4893 18.2367 74.453 18.0921 74.3809 17.9717C74.5187 17.461 74.6242 17.2061 74.6963 17.2061C74.6242 17.1118 74.5879 16.9305 74.5879 16.6621C74.6601 16.662 74.6963 16.6286 74.6963 16.5615L74.5879 16.1182C74.6864 15.7897 74.8274 15.612 75.0107 15.585L74.9121 15.3633C74.9778 15.2355 75.0107 15.0916 75.0107 14.9307H75.2275C75.1555 15.9039 75.1192 16.6251 75.1191 17.0947V17.8604C74.9093 17.8604 74.8037 17.9313 74.8037 18.0723C75.0136 18.0723 75.1191 18.4345 75.1191 19.1592H75.2275C75.5094 18.6021 75.6504 18.2764 75.6504 18.1826C75.5784 18.0418 75.543 17.9341 75.543 17.8604L75.6504 16.7734C75.5784 16.6326 75.543 16.5249 75.543 16.4512C75.759 16.451 75.8672 16.3068 75.8672 16.0176H76.0742V16.1182C75.7922 17.6087 75.6504 20.0693 75.6504 23.5H75.543C75.543 23.5736 75.5784 23.6103 75.6504 23.6104L75.543 24.1543V24.3652L75.9658 24.1543V24.2549C75.828 25.7253 75.5094 27.967 75.0107 30.9814C75.0107 31.8474 74.483 33.0428 73.4268 34.5674C73.4264 35.0098 72.7893 35.2611 71.5166 35.3213C70.2438 35.2475 69.6074 34.9593 69.6074 34.4561C69.4304 34.4561 69.2536 34.3818 69.0762 34.2344C69.0762 34.3081 69.0399 34.3457 68.9678 34.3457C68.9678 34.258 68.6851 33.9687 68.1211 33.4785C68.1208 33.1696 67.839 32.8444 67.2754 32.502C66.6257 32.1126 65.7425 30.559 64.627 27.8398C64.3953 27.5069 64.2574 27.4727 64.2139 27.7363C64.2795 28.287 64.3125 28.9174 64.3125 29.6289C64.3125 29.7363 64.2796 29.79 64.2139 29.79L64.3125 30.0117V30.666C64.3125 30.807 64.2433 31.1667 64.1055 31.7441L64.3125 31.6436C64.3845 32.3881 64.4209 32.8209 64.4209 32.9424H64.3125L64.4209 33.1533V33.9189L64.5293 34.4629C64.3851 34.4629 64.3125 34.5701 64.3125 34.7852C64.3125 34.8454 64.3488 35.1342 64.4209 35.6514L63.2598 36.084C62.8332 36.084 62.6202 35.7251 62.6201 35.0068H62.4033C62.3377 35.2885 62.3047 35.5402 62.3047 35.7617H62.1963C62.1961 35.305 61.8422 35.0164 61.1338 34.8955C61.1337 34.4124 60.957 33.8311 60.6025 33.1533C60.4647 33.2271 60.3592 33.2646 60.2871 33.2646V33.375H60.5039V33.4863C60.5038 33.5532 60.4677 33.5869 60.3955 33.5869L60.5039 33.8076V34.0293C59.9332 33.5056 59.6475 32.5297 59.6475 31.0996C59.7917 29.6095 59.8643 28.5411 59.8643 27.8965C59.8642 27.1387 59.7916 26.4708 59.6475 25.8936C59.6475 25.8268 59.6834 25.5374 59.7559 25.0273C59.7559 24.9335 59.7196 24.5702 59.6475 23.9395L59.7559 23.3965C59.6834 23.2752 59.6475 23.0937 59.6475 22.8525H59.7559C59.6177 22.4698 59.513 21.9292 59.4404 21.2314H59.5488C58.676 16.6727 57.8989 14.3937 57.2168 14.3936L57 13.6377V13.5273C57.0196 13.3803 57.0918 13.3066 57.2168 13.3066H57.3145L57.5312 13.417C57.5312 13.3432 57.5676 13.3066 57.6396 13.3066L57.5312 13.0947C57.5509 12.9468 57.6201 12.873 57.7383 12.873C57.8758 12.9466 57.9841 12.9833 58.0625 12.9834C58.0626 12.8761 58.1678 12.7684 58.3779 12.6611C58.8045 12.9627 59.0175 13.289 59.0176 13.6377C59.221 13.6376 59.539 13.4567 59.9717 13.0947L60.2695 13.084C60.2695 13.3725 60.5519 13.5166 61.1162 13.5166V13.7383H60.9004V13.8389C61.2807 13.8389 61.5623 13.9502 61.7461 14.1719L61.6475 13.9502V13.8389H61.8545C61.8545 13.9663 62.068 14.2922 62.4941 14.8164C63.7607 18.0048 67.4129 23.3592 69.1846 30.0049C69.3354 30.0055 69.4766 30.3307 69.6074 30.9814C70.3163 30.1955 70.9523 27.7722 71.5166 23.7109C71.5165 23.644 71.481 23.6104 71.4092 23.6104C71.5337 21.8718 71.7109 21.002 71.9404 21.002C71.9404 21.0827 71.9767 21.1908 72.0488 21.3252C71.9046 21.6137 71.832 22.0132 71.832 22.5234C71.8321 22.6844 71.8684 22.8287 71.9404 22.9561C71.8683 23.7954 71.7628 24.4466 71.625 24.9102C71.6971 25.4131 71.8027 25.665 71.9404 25.665H72.0488C72.0488 25.3765 72.1175 25.2314 72.2549 25.2314V24.1543C72.3338 24.1543 72.4423 24.1172 72.5801 24.043C72.508 23.8889 72.4353 23.5636 72.3633 23.0674C72.5011 22.9932 72.6062 22.9561 72.6787 22.9561L72.5801 22.4121C72.6455 22.412 72.6786 22.3756 72.6787 22.3018H72.4717V22.0898C72.7536 22.0896 72.8945 21.2571 72.8945 19.5928C72.9931 19.1027 73.0986 18.7777 73.21 18.6162C73.0726 18.6162 73.0029 18.5081 73.0029 18.293V17.0947H72.8945V16.9951C72.8945 16.9214 72.9309 16.8838 73.0029 16.8838L72.8945 16.6621C73.0588 16.5011 73.2002 16.0316 73.3184 15.2529L73.21 15.041C73.3545 14.7727 73.4268 14.4833 73.4268 14.1748L73.3184 13.9531H73.5342V13.8428H73.3184V13.6309C73.6532 12.8927 74.1479 12.3115 74.8037 11.8887ZM86.0215 11.0156C86.7183 11.2831 87.1159 11.6696 87.2129 12.1748L87.3857 12.0391L87.665 11.9824L87.6836 12.0811L87.6318 12.2852L88.5654 12.0977L89.7139 12.4688L89.8369 12.6396L89.5576 12.6953L89.5771 12.793C89.834 13.4393 90.2189 14.0939 90.7324 14.7568C91.5416 15.9213 92.0873 17.2411 92.3701 18.7158L92.6289 20.0625C92.8209 20.0237 93.2006 20.9793 93.7676 22.9277L93.8604 23.4092C93.8731 23.4741 93.8471 23.5137 93.7832 23.5264L93.915 23.6943C93.9718 23.9916 93.9398 24.499 93.8174 25.2148C94.147 25.581 94.3641 26.0341 94.4678 26.5752L94.5059 26.7715L94.6885 26.7344C94.8165 26.7086 94.8939 26.261 94.9199 25.3916L95.0156 25.3721L94.8828 25.1953L94.8271 24.9102C95.0823 24.3833 95.1453 22.839 95.0156 20.2773C95.1244 19.9652 95.2005 19.3542 95.2432 18.4443C95.5333 17.1258 95.8234 16.2672 96.1152 15.8691L96.2119 15.8506L96.249 16.0469L96.1895 16.2529L96.3994 16.3125L96.4961 16.293L96.4766 16.1953L96.2852 16.2334L96.3447 16.0273L96.3262 15.9287C96.3133 15.8639 96.2757 15.8376 96.2119 15.8506C96.2541 15.7245 96.2606 15.5904 96.2334 15.4482L96.417 15.4111L96.4219 15.9102C96.6253 15.8691 96.7957 15.4027 96.9326 14.5107L96.9131 14.4121L97.1152 14.4736L97.0967 14.376C97.0327 14.3891 96.9942 14.3619 96.9814 14.2969C97.0804 14.2767 97.1965 14.1888 97.3291 14.0322C97.3406 14.0916 97.3756 14.1163 97.4336 14.1045C97.7279 13.2488 98.0607 12.7828 98.4326 12.708L98.5293 12.6895L98.6025 13.0723L97.9424 14.2061L97.7393 14.1445L97.4521 14.2021L97.4707 14.3008L97.8457 14.2246L97.8838 14.4209C97.5178 14.8709 97.3422 15.1388 97.3584 15.2217C97.1485 16.172 96.9048 18.2834 96.6279 21.5557L96.6465 21.6543L96.7334 21.6367C96.9808 20.9759 97.1086 20.1165 97.1172 19.0586L97.4258 17.5977L97.5312 17.5752C97.5434 17.309 97.5971 17.1663 97.6963 17.1465L97.792 17.127C97.8228 17.2874 97.9176 17.4356 98.0762 17.5703L98.0986 17.6914C98.1419 17.6657 98.1799 17.6502 98.2119 17.6436L98.2314 17.7412C98.1363 18.2541 98.064 18.8992 98.0137 19.6748L98.1104 19.6553C98.2556 19.6256 98.3456 19.0762 98.3818 18.0078C98.7594 17.9319 98.9915 17.2854 99.0781 16.0703L99.2705 16.0322C99.2964 16.1696 99.2511 16.6111 99.1348 17.3564C99.2918 17.3246 99.4092 17.4335 99.4873 17.6836L99.4844 18.1846C99.5846 18.3618 99.6675 18.4447 99.7314 18.4316L99.7842 20.2178C99.8222 20.4136 99.9342 20.4931 100.12 20.4561L100.137 20.5449C100.182 22.8267 100.105 25.4696 99.9033 28.4746C99.6951 29.5911 99.2893 31.2041 98.6865 33.3135C98.2231 34.603 97.959 35.2555 97.8945 35.2705L97.3633 35.5713C97.3359 35.4286 97.1608 35.3652 96.8379 35.3809C96.867 35.5353 96.5744 35.6925 95.96 35.8535C95.6708 35.5101 95.3338 35.2783 94.9482 35.1582C94.9312 35.0692 94.8166 34.9935 94.6055 34.9307L94.5186 34.9482L94.5566 35.1445C94.0213 34.7456 93.7446 34.5012 93.7275 34.4121C92.4643 32.579 91.7488 31.2257 91.5811 30.3516C91.3379 29.4002 91.0726 28.5208 90.7852 27.7139L90.8447 27.5068L90.3203 25.8154L90.417 25.7959L90.2832 25.6191L89.9512 23.8887L89.6807 22.9521L89.2969 23.0293C89.3267 23.1838 89.2628 23.5268 89.1055 24.0586L89.2969 24.0205C89.2491 24.7773 89.2418 25.2453 89.2764 25.4238C89.3343 25.4121 89.3704 25.4382 89.3828 25.5039C89.1793 25.5445 89.1408 26.0188 89.2666 26.9258L89.4551 27.3887C89.4227 27.7528 89.3464 28.0332 89.2275 28.2305C89.2399 28.2954 89.278 28.3225 89.3418 28.3096C89.3896 29.2509 89.3762 29.8525 89.2998 30.1152C89.3807 30.2225 89.4273 30.3117 89.4414 30.3828C89.2542 30.7915 89.1442 31.7431 89.1113 33.2373C89.0486 33.9172 88.9849 34.2637 88.9209 34.2764L88.6426 34.332C88.5052 35.0944 88.2905 35.5054 88 35.5635C87.8582 35.3269 87.7414 35.217 87.6484 35.2354L87.4561 35.2744L87.0029 35.458C86.9478 35.1728 86.6293 35.0398 86.0479 35.0576L86.0508 34.5566C85.9889 34.2355 85.8338 34.1003 85.584 34.1504L85.4717 33.5703C85.4115 33.255 85.2245 33.1292 84.9111 33.1924C84.6326 31.7416 84.6739 29.2387 85.0352 25.6836C85.0228 25.6177 84.9839 25.5918 84.9199 25.6045L84.9189 24.6045L85.1289 24.6641L85.0176 24.084C85.2321 24.0408 85.3025 23.7274 85.2266 23.1436L85.0986 22.4746C85.2434 22.445 85.2937 22.2033 85.249 21.75L85.0859 21.375C85.1072 21.1737 85.1505 21.0656 85.2139 21.0518C85.2014 20.9871 85.1634 20.9606 85.0996 20.9736C85.0621 20.4317 85.0725 19.9665 85.1309 19.5781C85.0431 19.4666 84.9917 19.3748 84.9775 19.3037C85.0885 19.2195 85.1762 19.1709 85.2402 19.1582C85.1455 19.0107 85.0222 18.7015 84.8721 18.2314C84.9531 18.2149 85.0415 17.9965 85.1357 17.5762C85.0479 17.4644 84.9972 17.3755 84.9844 17.3096L85.0811 17.291L84.9473 17.1143C85.0121 15.4094 84.9434 13.5266 84.7412 11.4678C84.9438 11.2976 85.1821 11.1849 85.4551 11.1299L85.7334 11.0732C85.7973 11.0606 85.8362 11.0871 85.8486 11.1523L86.0215 11.0156ZM78.8574 6.21484C79.2644 6.21484 79.5114 6.39652 79.5967 6.75879C80.1148 6.88024 80.5742 7.24235 80.9746 7.84668C80.9746 8.04091 81.0462 8.25595 81.1904 8.49121L81.3975 8.39062H81.5059C81.6436 9.37721 81.7119 9.91789 81.7119 10.0117H81.9287V9.7998C82.2303 9.7998 82.4075 10.3032 82.46 11.3105C82.5585 11.3105 82.6994 11.8176 82.8828 12.8311C82.9552 12.8311 82.9911 12.8678 82.9912 12.9414C82.9912 13.0152 82.9553 13.0527 82.8828 13.0527L83.1982 15.3281C83.1262 15.7177 83.0899 16.0429 83.0898 16.3047V17.4932C83.0898 17.6612 83.0569 17.8091 82.9912 17.9365C83.0569 18.0705 83.0898 18.178 83.0898 18.2588C82.8339 20.9304 82.6242 22.2666 82.46 22.2666L82.5684 23.0322V24.9854C82.5683 25.1463 82.5324 25.2906 82.46 25.418C82.5325 25.5458 82.5684 25.6901 82.5684 25.8516V25.9619C82.5684 26.1033 82.4958 26.1738 82.3516 26.1738C82.3516 26.1002 82.3159 26.0627 82.2441 26.0625V26.1738L82.46 26.4961V26.7178L82.0371 30.1914L81.5059 31.0576C81.2696 31.0576 81.0564 31.1649 80.8662 31.3799C80.8662 31.4532 80.9021 31.4902 80.9746 31.4902L80.8662 32.5781V32.79H80.2354C80.2354 32.6491 80.0226 32.5039 79.5967 32.3564C78.5336 31.2016 78.002 28.2013 78.002 23.3545C77.9363 23.3545 77.9033 23.2098 77.9033 22.9209C77.9034 22.8473 77.9363 22.8105 78.002 22.8105L77.9033 22.2666V21.29C77.9033 21.2228 77.9363 21.1895 78.002 21.1895C77.9363 21.0485 77.9033 20.9372 77.9033 20.8564L78.002 18.2588H78.1104C78.1104 18.1852 78.0742 18.1476 78.002 18.1475C78.0936 17.1684 78.1663 16.5913 78.2188 16.416C78.2188 16.3424 78.1822 16.3048 78.1104 16.3047C78.1105 16.2305 78.1468 16.1236 78.2188 15.9834C78.2908 14.1576 78.3262 12.7102 78.3262 11.6426C78.3262 10.4611 78.1853 8.94031 77.9033 7.08105C78.2112 6.50386 78.5295 6.21504 78.8574 6.21484ZM107.27 31.1562C107.271 31.1536 107.274 31.1511 107.275 31.1484C107.272 31.1479 107.268 31.1492 107.265 31.1484C107.267 31.1504 107.268 31.1537 107.27 31.1562ZM96.0938 27.165C95.968 27.326 95.8558 27.4164 95.7568 27.4365C95.8447 27.5487 95.8949 27.6381 95.9072 27.7031L95.4902 29.584L95.3945 29.6035L95.4863 30.085C95.5282 30.206 95.6045 30.2556 95.7148 30.2334C95.8432 29.8988 95.9071 29.5557 95.9062 29.2041C96.0278 29.1794 96.1777 28.7812 96.3555 28.0107L96.2461 27.4404L96.1504 27.459L96.2051 27.7451L96.0225 27.7812L95.9844 27.5859L96.1133 27.2627L96.0938 27.165ZM126.536 27.165C126.962 28.8285 127.28 29.6619 127.49 29.6631V29.5518C127.49 29.4641 127.455 29.105 127.383 28.4746L127.49 27.9307C127.419 27.9305 127.383 27.8938 127.383 27.8203L127.176 27.9307H126.959C126.959 27.4203 126.818 27.1651 126.536 27.165ZM96.4092 23.2568C96.3278 23.2746 96.2277 23.7572 96.1084 24.7061L95.8203 24.7646L95.8945 25.1475L95.9902 25.1279L96.0371 25.0928C96.0347 25.3014 95.9632 25.7523 95.8203 26.4443L95.8359 27.043L95.8535 27.1318L95.9492 27.1123C96.0904 25.8061 96.1568 25.1286 96.1475 25.0811L96.1357 25.0215L96.165 25.001C96.1761 25.0599 96.2115 25.0836 96.2695 25.0723C96.2231 24.8283 96.3121 24.4463 96.5381 23.9258C96.5812 23.8058 96.5819 23.6385 96.541 23.4248L96.5059 23.2373L96.4092 23.2568ZM120.021 18.4355C119.687 18.8851 119.333 19.6807 118.959 20.8223C118.801 21.8221 118.519 22.7956 118.112 23.7422H118.004V24.1758C118.365 24.1758 119.533 23.887 121.508 23.3096V23.1992C121.508 23.0443 121.012 21.4902 120.021 18.5361V18.4355ZM71.9277 19.4092L71.8193 19.9531C71.8919 20.2351 71.9277 20.5243 71.9277 20.8193H71.8193C71.7213 20.8193 71.6166 20.7117 71.5049 20.4971V20.2861C71.5049 20.2121 71.5405 20.175 71.6123 20.1748L71.5049 19.9531C71.649 19.7184 71.7207 19.5032 71.7207 19.3086H71.9277V19.4092ZM116.396 13.4199H116.612C115.549 15.7227 115.018 17.3139 115.018 18.1934C115.169 18.1598 115.31 17.9785 115.441 17.6494C115.376 17.522 115.343 17.3777 115.343 17.2168C115.507 17.2168 115.825 16.602 116.297 15.374L116.189 15.1523V15.041C116.576 14.5915 116.786 13.9772 116.818 13.1982H116.396V13.4199ZM97.7012 18.043L97.7969 18.0234L97.75 17.7783C97.7156 17.7731 97.6818 17.7695 97.6484 17.7695L97.7012 18.043ZM97.9023 16.5479C97.7803 16.5727 97.7368 16.6803 97.7734 16.8701L97.6777 16.8887C97.6652 16.8237 97.615 16.735 97.5273 16.623C97.7189 16.5846 97.7965 16.4671 97.7588 16.2715L97.8457 16.2539L97.9023 16.5479Z" fill="#1D1D1F"/>
<path fill-rule="evenodd" clip-rule="evenodd" d="M149.317 35.8614L147.183 35.6439L146.975 35.7526C146.105 35.5356 145.466 35.2163 145.058 34.7951C144.136 34.0374 143.675 33.4715 143.675 33.0961C143.675 33.0306 143.602 32.7443 143.457 32.237V32.1386L143.566 31.9211C143.474 31.9211 143.263 31.6382 142.934 31.0719V30.7555C142.934 30.6832 143.18 30.4692 143.675 30.1134L143.566 29.5805C144.811 28.6589 145.664 28.1979 146.125 28.1979V28.3066C146.125 28.5896 145.875 29.1559 145.374 30.0051V30.1134C145.526 30.1134 145.918 30.2192 146.55 30.4298L148.359 30.2222V30.3309C148.833 30.2585 149.294 30.1498 149.742 30.0051L150.483 30.1134C151.511 29.9495 152.789 29.3104 154.318 28.1979C154.753 27.8358 155.177 27.2694 155.593 26.4994C155.948 26.124 156.126 25.7683 156.126 25.4327C152.18 24.5834 150.052 24.05 149.742 23.833C149.742 23.9773 149.67 24.05 149.525 24.05C147.028 23.4508 145.575 22.8849 145.167 22.3515C144.864 22.3515 144.33 21.9962 143.566 21.2848C143.381 21.2651 142.993 20.8041 142.4 19.9022C142.229 19.9022 142.051 19.6556 141.866 19.1612C141.583 19.1612 141.441 18.8059 141.441 18.0949C141.441 16.9101 141.793 15.8793 142.499 15.004C142.927 14.2797 143.424 13.6774 143.991 13.1967C144.327 12.8611 144.541 12.5084 144.633 12.1399C145.72 11.3565 146.359 10.9648 146.55 10.9648C148.151 11.1292 149.321 11.4122 150.059 11.8137C151.692 12.6831 152.509 13.4994 152.509 14.263V15.1127H152.292V15.221L152.401 15.4384L151.867 15.5373C151.636 15.5373 151.106 15.2544 150.276 14.6876C149.05 15.188 148.306 15.5437 148.042 15.7548C147.983 16.0904 147.522 16.515 146.659 17.0282C146.659 17.1468 146.303 17.5025 145.592 18.0949C145.164 18.74 144.949 19.1287 144.949 19.2605C146.372 19.8988 148.714 20.5374 151.975 21.1765C154.927 21.8875 156.735 22.5985 157.401 23.3095C159.535 24.3694 160.603 25.1827 160.603 25.7486H160.385C160.385 25.5641 159.997 25.2122 159.219 24.6917H159.002V24.7906C159.325 25.66 159.822 26.2293 160.494 26.4994C160.494 26.5914 160.672 26.9107 161.028 27.4569C160.882 27.477 160.81 27.546 160.81 27.6645L160.919 28.6225C160.919 29.1627 160.494 29.5869 159.644 29.8968C159.644 30.1271 159.325 30.4824 158.685 30.9631C158.685 31.3188 158.115 31.8158 156.976 32.4545C156.976 32.5923 156.515 33.0174 155.593 33.7284C155.382 33.814 155.276 33.9227 155.276 34.0541H155.168L154.96 33.9458C154.96 34.459 154.285 34.9564 152.934 35.4367C152.934 35.2197 152.862 35.111 152.717 35.111C152.486 35.4333 152.097 35.6473 151.551 35.7526L150.908 35.6439H150.701C150.543 35.6439 150.401 35.6803 150.276 35.7526L150.059 35.6439C149.933 35.7167 149.792 35.7526 149.634 35.7526L149.426 35.6439L149.317 35.8614ZM169.862 34.6863H169.645C168.914 34.6863 168.416 34.581 168.152 34.3704L167.728 34.4792C167.616 34.4792 167.405 34.3375 167.095 34.0541L166.878 34.153C166.384 34.0408 165.923 33.6162 165.494 32.8787L165.277 32.9874H165.069C163.58 31.7632 162.836 30.9469 162.836 30.5385C161.63 28.0498 161.028 25.2122 161.028 22.0258C160.975 22.0258 160.866 20.9984 160.701 18.9446H160.81C160.665 18.5821 160.593 18.3355 160.593 18.2037C160.646 17.7756 160.718 17.5616 160.81 17.5616L160.168 14.4805C160.299 14.4805 160.408 14.1611 160.494 13.5225C160.777 13.5225 160.919 13.4501 160.919 13.3054V13.1967H161.028L161.344 13.4142C161.495 13.4142 161.706 13.2001 161.976 12.7721C162.055 12.7721 162.164 12.7357 162.302 12.6634V12.8808L162.836 12.7721C162.836 12.9895 162.869 13.0978 162.935 13.0978C163.033 13.0255 163.212 12.9895 163.468 12.9895C163.468 13.1535 163.682 13.2588 164.111 13.3054V13.4142L164.002 13.6214C164.147 13.6214 164.219 13.6937 164.219 13.8384H164.318C164.391 13.8384 164.677 13.766 165.178 13.6214H165.494V14.3717L165.277 14.6876L165.603 14.9051L165.277 16.4953C165.303 16.64 165.376 16.7123 165.494 16.7123C165.422 17.5419 165.386 18.1446 165.386 18.5196V18.6283L165.494 19.6847H165.386L165.494 19.9022V20.0109C165.494 21.15 165.6 23.2042 165.81 26.1732H165.702C165.774 26.338 165.919 26.9073 166.137 27.882L166.028 28.4153C166.166 28.6456 166.235 28.8562 166.235 29.0472L166.137 29.2646C166.486 29.2646 166.661 29.6199 166.661 30.3309C166.779 30.3309 166.924 30.5415 167.095 30.9631C167.444 30.9631 168.294 30.1134 169.645 28.4153C170.429 27.0918 171.209 24.8201 171.987 21.6011V20.1094L171.878 19.3688H171.987L171.878 19.1612C171.878 18.9973 171.914 18.8522 171.987 18.7272C171.776 15.9487 171.671 14.2831 171.671 13.7301C171.927 13.3876 172.247 13.1043 172.629 12.8808V12.5645H172.837V12.7721H173.153C173.516 12.2781 173.835 12.0311 174.111 12.0311L174.22 12.2387L174.438 12.1399H174.645V12.4558H174.754L175.288 12.3475L175.93 12.7721V13.0978H176.354V12.8808C176.493 12.9532 176.599 12.9895 176.671 12.9895C176.809 12.9168 176.915 12.8808 176.987 12.8808C177.488 13.3414 177.738 13.9077 177.738 14.5789C177.666 14.5789 177.629 14.6153 177.629 14.6876C177.768 14.7142 177.837 14.7865 177.837 14.9051C177.626 15.0699 177.521 15.3164 177.521 15.646H177.412L177.205 15.004C177.06 15.0301 176.987 15.1024 176.987 15.221V16.7123C176.987 17.384 176.951 18.2003 176.878 19.1612L176.987 19.6847C176.546 22.5553 176.121 24.4717 175.712 25.4327C175.64 25.4327 175.604 25.469 175.604 25.5414V26.4994L175.712 27.5562C175.429 27.5562 175.288 27.8426 175.288 28.4153H175.179C175.179 28.6456 175.32 29.4256 175.604 30.7555H175.495L175.604 30.9631V31.4965C175.604 31.6544 175.568 31.7961 175.495 31.9211C175.568 32.0594 175.604 32.1647 175.604 32.237C175.446 32.237 175.268 31.8847 175.07 31.1806H174.971C174.971 31.2461 174.935 31.279 174.863 31.279C175.001 32.0298 175.179 32.7768 175.396 33.5208C175.323 33.6594 175.288 33.7647 175.288 33.8371C175.175 33.8371 174.928 33.0927 174.546 31.6052H174.438L174.329 31.8124V31.9211H174.546V32.5628H174.754C174.754 32.6355 174.717 32.6715 174.645 32.6715L174.754 32.8787V33.195L174.546 33.0961C174.546 33.162 174.51 33.195 174.438 33.195C174.22 32.7734 173.97 31.9935 173.686 30.8544H173.479C173.38 30.8544 173.239 31.1737 173.054 31.8124C172.916 31.8124 172.56 32.2041 171.987 32.9874L172.096 33.195C171.905 33.4317 171.407 33.6457 170.603 33.8371C170.109 34.2454 169.862 34.5284 169.862 34.6863ZM176.137 36.3947H175.821C175.748 35.8746 175.676 35.5553 175.604 35.4367C175.676 35.3186 175.712 35.1409 175.712 34.9038H175.93V35.328L175.821 35.5356C175.96 35.6079 176.065 35.6439 176.137 35.6439V35.7526L175.93 36.069C176.068 36.0951 176.137 36.1678 176.137 36.286V36.3947ZM201.08 38.606L200.655 38.3989C200.517 38.4648 200.408 38.4977 200.329 38.4977L199.904 38.3989C199.766 38.4648 199.66 38.4977 199.587 38.4977C199.587 38.3137 199.337 38.172 198.837 38.0731C198.679 37.6579 198.395 37.306 197.986 37.0162C197.565 36.2526 197.245 35.1893 197.028 33.8264L197.137 33.6089C197.064 33.4707 197.028 33.3654 197.028 33.293H197.137C197.011 33.0627 196.87 32.0688 196.712 30.3103H196.82C196.689 29.8827 196.333 26.5512 195.753 20.3166C195.681 20.3166 195.575 19.7472 195.437 18.6082C195.437 18.5358 195.473 18.4301 195.546 18.2919C195.546 17.5547 195.117 16.738 194.261 15.843C194.261 15.7963 194.083 15.2993 193.727 14.3512C193.807 14.0353 194.057 13.7887 194.478 13.6111H194.587V13.8183C195.088 13.68 195.371 13.6111 195.437 13.6111H195.546V14.2527H195.753L195.645 14.4599V14.5686C195.789 14.5686 195.862 14.605 195.862 14.6774L196.712 14.144H196.82V14.2527C196.748 14.3841 196.712 14.4894 196.712 14.5686C196.784 14.5686 196.82 14.605 196.82 14.6774C196.959 14.605 197.064 14.5686 197.137 14.5686C197.756 14.6084 198.395 15.1743 199.054 16.2676C199.054 16.735 199.301 17.446 199.795 18.4006C200.295 22.9499 200.546 25.4322 200.546 25.847H200.655C202.269 25.6296 203.475 25.5208 204.272 25.5208H204.697C205.336 25.5208 205.655 25.1326 205.655 24.3557H205.764L205.655 24.1382V24.0398C206.011 24.0398 206.367 21.9093 206.723 17.6498C206.577 17.6498 206.505 17.5809 206.505 17.4426V16.8005C206.887 16.8005 207.171 16.6952 207.355 16.4846H207.572L207.671 17.018C207.605 17.018 207.572 17.0509 207.572 17.1164L207.78 17.2251C207.78 17.1528 207.816 17.1164 207.888 17.1164L207.78 16.9092V16.8005C208.247 16.8005 208.531 16.5869 208.629 16.1589H208.847C208.847 16.2376 208.883 16.3463 208.956 16.4846L209.163 16.3763H209.272C209.272 16.613 209.308 16.7907 209.381 16.9092L209.588 16.8005C209.733 16.8206 209.806 16.893 209.806 17.018V17.1164H209.588V17.2251H209.914L210.013 17.018C209.947 16.8793 209.914 16.7714 209.914 16.6922H210.122C210.55 17.0672 210.764 17.3865 210.764 17.6498H211.08L211.298 17.541L211.189 17.3339C211.209 17.1892 211.278 17.1164 211.396 17.1164C211.924 17.1164 212.21 17.2251 212.257 17.4426V17.6498C212.257 17.7949 212.148 17.8672 211.93 17.8672C212.214 18.6048 212.355 19.0653 212.355 19.2498C212.006 20.659 211.832 22.4299 211.832 24.5633L212.039 24.672C212.039 24.5992 212.075 24.5633 212.148 24.5633C212.148 24.708 212.184 24.7799 212.257 24.7799L212.681 24.5633V24.672C212.681 24.8826 212.398 25.0239 211.832 25.0962V25.7383H212.573L213.956 25.422C213.956 25.4883 213.993 25.5208 214.065 25.5208C214.065 25.383 214.348 25.2777 214.915 25.2049V25.3137C214.915 25.4057 214.453 25.6527 213.531 26.0542C213.531 26.3371 212.892 26.6565 211.614 27.0122V27.2292L212.148 27.1209C212.22 27.1209 212.257 27.1569 212.257 27.2292C212.395 27.1569 212.5 27.1209 212.573 27.1209H212.79V27.2292C211.934 27.3345 211.505 27.4762 211.505 27.6538C211.505 27.8649 211.469 27.9702 211.396 27.9702L211.505 28.1872C211.367 28.7865 211.298 29.1388 211.298 29.2441L211.396 29.8861C211.396 30.5381 211.186 32.1672 210.764 34.7745H210.547V34.5673H210.448V35.9495H210.122L209.697 35.6336C209.697 35.7522 209.519 36.0715 209.163 36.5916C209.163 37.3488 208.952 37.7735 208.531 37.8659C208.531 38.0765 208.175 38.1818 207.464 38.1818H207.355C207.355 37.9712 207.249 37.8659 207.039 37.8659H206.93V37.0162C206.93 36.8519 206.894 36.7102 206.821 36.5916C206.821 36.5193 206.857 36.4829 206.93 36.4829C206.93 36.3382 206.894 36.2654 206.821 36.2654C206.986 33.5725 207.128 32.2267 207.246 32.2267L207.147 32.0093C207.286 31.5217 207.355 31.0975 207.355 30.7354V29.8861L207.464 29.3528C207.292 29.2145 207.15 29.1456 207.039 29.1456C205.991 29.3562 205.28 29.5304 204.904 29.6687V30.3103C204.72 30.3103 204.473 30.702 204.163 31.4858L203.204 33.6089C203.066 33.6813 202.961 33.7177 202.888 33.7177V34.5673C202.888 34.7381 202.71 35.0575 202.354 35.5249C202.354 35.9461 202.282 36.1571 202.137 36.1571L202.246 36.3742C201.679 36.9799 201.396 37.3356 201.396 37.4413V37.9742L201.505 38.1818C201.267 38.1818 201.126 38.3231 201.08 38.606ZM206.189 24.5659C206.525 23.4931 206.772 22.9234 206.93 22.8575C206.857 22.5745 206.752 22.3276 206.614 22.117L206.821 21.801H206.723C206.604 21.801 206.459 22.048 206.287 22.5416L206.396 23.0749C206.363 23.3579 206.258 23.4996 206.08 23.4996V23.6079L206.189 23.8159H205.971V24.3488C205.998 24.4939 206.07 24.5659 206.189 24.5659ZM208.847 33.2866C209.018 33.2866 209.124 32.9305 209.163 32.2195C209.097 32.0816 209.065 31.9763 209.065 31.9036H209.272V31.4794C209.272 31.3342 209.203 31.2619 209.065 31.2619L209.163 30.7286V29.6717C209.163 29.5993 209.2 29.563 209.272 29.563L209.163 29.3459C209.163 29.2736 209.2 29.1679 209.272 29.03L209.065 28.072C209.13 28.072 209.163 28.0357 209.163 27.9633H208.956V28.7141C208.956 28.8721 208.919 29.0133 208.847 29.1383C208.847 29.2111 208.883 29.2471 208.956 29.2471L208.847 29.7706V29.9876L208.956 30.7286H208.847L208.956 30.946V31.1532C208.956 31.2979 208.883 31.3706 208.738 31.3706C208.883 31.6009 208.956 31.815 208.956 32.0123V32.5358L208.847 33.2866ZM208.106 34.2446C208.244 33.7112 208.313 33.3919 208.313 33.2866C208.313 33.2143 208.277 33.1779 208.205 33.1779L208.313 32.6445V31.4794L208.205 30.1952H208.313L208.205 29.9876V29.2471C208.205 29.1747 208.241 29.1383 208.313 29.1383C208.241 29.0463 208.205 28.7959 208.205 28.3879C208.066 28.4145 207.997 28.4868 207.997 28.6054V29.3459C207.997 29.7543 207.961 30.0047 207.888 30.0963C207.961 30.4786 207.997 30.7975 207.997 31.0547V34.2446H208.106ZM203.313 31.5778C203.313 31.3475 203.56 30.8535 204.054 30.0963L204.588 29.03V28.8126H204.479C204.071 29.2672 203.751 29.8365 203.521 30.5214C203.475 30.5214 203.333 30.699 203.096 31.0547V31.5778H203.313ZM200.862 33.2866C201.284 32.8252 202.064 31.6536 203.204 29.7706C203.204 29.7046 203.241 29.6717 203.313 29.6717V29.9876H203.521C203.521 29.6914 203.593 29.3361 203.738 28.9213H203.629V29.03C203.557 29.03 203.521 28.9936 203.521 28.9213C202.354 29.3489 201.682 29.563 201.505 29.563C201.024 29.3524 200.741 29.2471 200.655 29.2471V29.563C200.655 29.7209 200.688 29.8626 200.753 29.9876C200.753 30.0599 200.721 30.0963 200.655 30.0963C200.721 30.4191 200.79 31.4824 200.862 33.2866ZM217.665 37.8796H217.033C217.033 37.7414 216.819 37.5997 216.39 37.455C215.323 36.3224 214.79 33.3795 214.79 28.6259C214.724 28.6259 214.691 28.4847 214.691 28.2013C214.691 28.129 214.724 28.0926 214.79 28.0926L214.691 27.5597V26.6012C214.691 26.5358 214.724 26.5028 214.79 26.5028C214.724 26.3645 214.691 26.2558 214.691 26.1766L214.79 23.6288H214.898C214.898 23.5565 214.862 23.5201 214.79 23.5201C214.882 22.5591 214.954 21.9928 215.007 21.8216C215.007 21.7488 214.971 21.7129 214.898 21.7129C214.898 21.6405 214.934 21.5348 215.007 21.397C215.08 19.6064 215.116 18.1874 215.116 17.1404C215.116 15.9816 214.974 14.4903 214.691 12.6668C215 12.1005 215.32 11.8171 215.649 11.8171C216.058 11.8171 216.305 11.9952 216.39 12.3505C216.911 12.4695 217.372 12.8247 217.774 13.4176C217.774 13.6081 217.847 13.8187 217.991 14.0494L218.199 13.9505H218.308C218.446 14.9184 218.515 15.4487 218.515 15.5407H218.732V15.3331C219.035 15.3331 219.213 15.8267 219.266 16.8146C219.365 16.8146 219.507 17.3116 219.691 18.3056C219.763 18.3056 219.8 18.3419 219.8 18.4143C219.8 18.4866 219.763 18.523 219.691 18.523L220.007 20.7549C219.935 21.1371 219.899 21.456 219.899 21.7129V22.878C219.899 23.0428 219.865 23.1879 219.8 23.3129C219.865 23.4443 219.899 23.5496 219.899 23.6288C219.642 26.249 219.431 27.5597 219.266 27.5597L219.375 28.31V30.2256C219.375 30.3835 219.339 30.5252 219.266 30.6502C219.339 30.7756 219.375 30.9169 219.375 31.0753V31.1836C219.375 31.3223 219.302 31.3912 219.157 31.3912C219.157 31.3188 219.121 31.2825 219.049 31.2825V31.3912L219.266 31.7071V31.9245L218.841 35.3319L218.308 36.1807C218.071 36.1807 217.857 36.286 217.665 36.497C217.665 36.5694 217.701 36.6053 217.774 36.6053L217.665 37.6725V37.8796ZM183.323 16.0484C184.309 15.682 185.235 15.3755 186.1 15.1294H186.195V15.3092C185.885 15.3267 185.731 15.3896 185.731 15.4988C185.175 15.533 184.896 15.6563 184.896 15.8682H184.621C184.415 15.8682 184.2 15.9598 183.977 16.143H183.323V16.0484ZM193.904 30.1002H193.998C193.998 29.9683 193.907 29.7821 193.723 29.5416V29.2667L193.809 29.0775L193.259 28.15C192.239 27.1183 191.064 26.1933 189.734 25.3744C188.444 24.6125 187.796 24.1797 187.791 24.077C187.281 23.8591 185.922 23.0287 183.715 21.5853C182.506 20.9034 181.675 20.1933 181.222 19.454C181.251 19.2079 181.342 19.0846 181.497 19.0846C181.497 18.6724 183.386 18.0046 184.991 17.3459C185.919 17.0937 186.384 16.8788 186.384 16.7012C187.983 16.1687 188.877 15.828 189.066 15.679C189.995 15.4727 190.459 15.3182 190.459 15.215C190.597 15.215 190.72 15.4329 190.829 15.8682L190.734 16.0484C190.734 16.1747 190.826 16.2372 191.009 16.2372V16.3318C190.826 16.3318 190.734 16.4238 190.734 16.607C190.797 16.9161 190.984 17.3172 191.293 17.8099H191.568L191.474 17.6211H191.749C192.018 16.8189 192.236 16.4178 192.402 16.4178V16.2372C192.402 15.9337 192.494 15.6246 192.677 15.3092C192.614 15.2009 192.583 15.0772 192.583 14.9402C192.554 14.7283 192.061 14.3272 191.104 13.7374L189.531 13.2733H189.436C189.012 13.2733 188.551 13.3675 188.052 13.5567C186.315 13.9231 185.203 14.2925 184.716 14.6654L184.527 14.5708H184.346C184.031 14.8169 183.63 14.9714 183.143 15.0348L179.901 16.5124C178.566 17.1999 177.823 17.9105 177.674 18.6433C177.674 18.7349 177.829 19.136 178.138 19.8461L178.044 20.0353C178.044 20.0871 178.167 20.3619 178.414 20.8602C178.414 21.0263 178.569 21.2125 178.878 21.4188C178.878 21.5964 179.156 21.9658 179.712 22.527C180.406 22.9452 180.93 23.3463 181.285 23.7299C181.904 23.8386 182.214 23.9935 182.214 24.1939C183.429 24.8586 184.108 25.291 184.252 25.4917C185.816 26.3564 187.421 27.373 189.066 28.542C190.115 29.0801 190.64 29.4525 190.64 29.6588C190.004 30.1682 188.121 30.5697 184.991 30.8617C184.991 30.7988 184.96 30.7671 184.896 30.7671C184.787 30.83 184.664 30.8617 184.527 30.8617H180.916C179.93 30.8617 179.437 31.2311 179.437 31.9699V32.2451C179.672 32.2451 179.827 32.463 179.901 32.8979L180.451 33.2678C180.715 33.4506 180.901 33.5426 181.01 33.5426C181.36 33.7887 181.606 33.9116 181.75 33.9116C181.75 34.227 182.337 34.4449 183.512 34.5652V34.6508L183.418 34.8396C183.922 34.8396 184.231 34.8999 184.346 35.0202H184.621L185.18 34.9342L185.361 35.0202C186.249 34.9457 187.02 34.8546 187.674 34.7454C187.674 34.8083 187.705 34.8396 187.768 34.8396C188.989 34.6911 190.224 34.3816 191.474 33.9116C191.869 33.8204 192.21 33.4193 192.497 32.7092H193.142L193.331 32.0645V31.7811C193.331 31.6377 194.093 30.5068 193.904 30.1002Z" fill="#1D1D1F"/>
</svg>
