<svg width="24" height="24" viewBox="0 0 24 24" fill="none" xmlns="http://www.w3.org/2000/svg">
<path d="M4.54866 4.19629C5.43031 3.31516 6.85943 3.3151 7.74104 4.19629L9.86995 6.3252C10.7516 7.20688 10.7515 8.6368 9.86995 9.51855L8.72249 10.666C8.6332 10.7554 8.62454 10.8973 8.70198 10.9971L9.39925 11.8945C10.1855 12.9054 11.0954 13.8143 12.1063 14.6006L13.0037 15.2988C13.1035 15.3762 13.2454 15.3676 13.3348 15.2783L14.4823 14.1309C15.364 13.2494 16.7939 13.2494 17.6756 14.1309L19.8035 16.2588C20.6852 17.1405 20.6851 18.5704 19.8035 19.4521L17.7625 21.4932C17.317 21.9387 16.7056 22.1785 16.076 22.1533C12.8898 22.026 9.75466 20.4013 6.67659 17.3232C3.59894 14.2454 1.97489 11.1108 1.84749 7.9248C1.82246 7.29546 2.0614 6.68373 2.50667 6.23828L4.54866 4.19629ZM6.67659 5.26074C6.38278 4.96733 5.90693 4.96734 5.61311 5.26074L3.57112 7.30176C3.4227 7.45018 3.34313 7.65454 3.3514 7.86426C3.46199 10.632 4.911 13.4286 7.74104 16.2588C10.5714 19.0891 13.3687 20.5388 16.1366 20.6494C16.3463 20.6577 16.5497 20.5771 16.6981 20.4287L18.7401 18.3877C19.0336 18.0938 19.0338 17.617 18.7401 17.3232L16.6112 15.1943C16.3174 14.9008 15.8406 14.9009 15.5467 15.1943L14.3992 16.3418C13.773 16.968 12.778 17.0301 12.0789 16.4863L11.1815 15.7891C10.0721 14.9261 9.07464 13.9278 8.21175 12.8184L7.5135 11.9209C6.97028 11.2219 7.03214 10.2277 7.65804 9.60156L8.8055 8.4541C9.09923 8.16017 9.09935 7.6835 8.8055 7.38965L6.67659 5.26074ZM12.1756 5.04102C15.6394 5.04102 18.9598 8.36138 18.9598 11.8252C18.9595 12.2405 18.6232 12.5769 18.2078 12.5771C17.7923 12.5771 17.4552 12.2406 17.4549 11.8252C17.4549 9.1927 14.8081 6.5459 12.1756 6.5459C11.7602 6.54564 11.4237 6.20847 11.4237 5.79297C11.4239 5.37765 11.7603 5.04127 12.1756 5.04102ZM12.5311 1.84766C17.9346 1.84766 22.1531 6.06627 22.1532 11.4697C22.1532 11.8852 21.8167 12.2224 21.4012 12.2227C20.9855 12.2227 20.6483 11.8854 20.6483 11.4697C20.6482 6.89759 17.1033 3.35254 12.5311 3.35254C12.1156 3.3525 11.7783 3.01608 11.7782 2.60059C11.7782 2.18495 12.1155 1.84769 12.5311 1.84766Z" fill="#FF6633"/>
</svg>
